<?xml version="1.0" encoding="utf-8"?>
<!-- Generator: Adobe Illustrator 25.0.1, SVG Export Plug-In . SVG Version: 6.00 Build 0)  -->
<svg version="1.1" id="Layer_1" xmlns="http://www.w3.org/2000/svg" xmlns:xlink="http://www.w3.org/1999/xlink" x="0px" y="0px"
	 viewBox="0 0 533 442" style="enable-background:new 0 0 533 442;" xml:space="preserve">
<style type="text/css">
	.st0{fill:#B5C3DF;}
	.st1{fill:#264DA1;}
	.st2{fill:#159096;}
	.st3{fill:#90CFD2;}
	.st4{fill:#7693CB;}
	.st5{fill:#EFF4F9;}
	.st6{fill:#E6E6E5;}
	.st7{fill:#BCCAE8;}
	.st8{fill:#F06971;}
	.st9{fill:#F3767E;}
	.st10{fill:none;stroke:#EFF4F9;stroke-miterlimit:10;}
	.st11{fill:#ED2025;}
	.st12{fill:#FAC5C9;}
	.st13{fill:#F8ADB2;}
	.st14{fill:#F8F8F3;}
	.st15{fill:#EAECE7;}
	.st16{fill:#E7EBEF;}
</style>
<g>
	<path class="st0" d="M167,62.3c-1.5-0.6-3.2,0.3-3.7,2L159.9,75c-0.5,1.7,0.3,3.5,1.8,4.1l16.7,6.4l5.3-16.8L167,62.3z"/>
	<path class="st1" d="M194.2,82.1c1.2-3.8-2.5-8.9-8.6-12.3c-0.6-0.4-1.2-0.8-2-1.1l-5.3,16.8c0.7,0.3,1.4,0.4,2.2,0.5
		C187.3,87.4,193,86,194.2,82.1z"/>
</g>
<g>
	<g>
		
			<ellipse transform="matrix(1 -7.816420e-03 7.816420e-03 1 -1.5548 0.4786)" class="st2" cx="60.5" cy="199.1" rx="14" ry="27.7"/>
		<g>
			<path class="st3" d="M49.3,182.1c-0.1,0.3-0.2,0.6-0.3,0.9l11.5,19.8l11.2-19.9c-0.1-0.3-0.2-0.6-0.3-0.9l-10.8,19.3L49.3,182.1z
				"/>
			<path class="st3" d="M47.5,188.4c-0.1,0.4-0.1,0.8-0.2,1.1l13.3,22.8l12.9-23c-0.1-0.4-0.1-0.8-0.2-1.1l-12.7,22.7L47.5,188.4z"
				/>
			<path class="st3" d="M60.6,220.5l-13.9-23.8l-0.3,0.1c0,0.3,0,0.6,0,0.9L60.6,222l13.8-24.5c0-0.3,0-0.6,0-0.9l-0.3-0.1
				L60.6,220.5z"/>
			<path class="st3" d="M47.4,208.9l10,17.1c0.4,0.2,0.7,0.3,1.1,0.4l-11.4-19.7C47.2,207.5,47.3,208.2,47.4,208.9z"/>
			<path class="st3" d="M63.9,225.9l9.7-17.3c0.1-0.7,0.2-1.4,0.3-2.1l-11.1,19.9C63.2,226.3,63.6,226.1,63.9,225.9z"/>
			<path class="st3" d="M54.1,223.6l-5-8.6C50.4,218.6,52.1,221.6,54.1,223.6z"/>
			<path class="st3" d="M72,214.9l-4.8,8.7C69.1,221.4,70.8,218.4,72,214.9z"/>
			<path class="st3" d="M59.9,171.5c-0.3,0-0.5,0-0.8,0.1l1.2,2l1.1-2c-0.3,0-0.5-0.1-0.8-0.1l-0.3,0.6L59.9,171.5z"/>
			<path class="st3" d="M55.4,173.2c-0.2,0.1-0.4,0.3-0.6,0.4l5.5,9.5l5.4-9.6c-0.2-0.2-0.4-0.3-0.6-0.4l-4.8,8.5L55.4,173.2z"/>
			<path class="st3" d="M52,176.9c-0.2,0.2-0.3,0.5-0.5,0.7l8.9,15.2l8.6-15.4c-0.2-0.2-0.3-0.5-0.5-0.7l-8.2,14.5L52,176.9z"/>
		</g>
	</g>
	<g>
		
			<ellipse transform="matrix(0.9885 -0.1515 0.1515 0.9885 -23.5537 14.4148)" class="st2" cx="82.8" cy="161.8" rx="14" ry="27.7"/>
		<g>
			<path class="st3" d="M91.1,143.2c0.2,0.3,0.3,0.6,0.5,0.9l-8.2,21.3l-14.2-17.9c0.1-0.3,0.1-0.6,0.2-0.9l13.8,17.3L91.1,143.2z"
				/>
			<path class="st3" d="M93.9,149.2c0.1,0.4,0.3,0.7,0.4,1.1l-9.5,24.6l-16.4-20.7c0-0.4,0-0.8,0-1.2l16.2,20.4L93.9,149.2z"/>
			<path class="st3" d="M86.1,182.9l9.9-25.7l0.3,0.1c0.1,0.3,0.1,0.6,0.2,0.9l-10.1,26.2l-17.5-22c0-0.3-0.1-0.6-0.1-0.9l0.2-0.2
				L86.1,182.9z"/>
			<path class="st3" d="M97.2,169.3l-7.1,18.5c-0.3,0.2-0.7,0.4-1,0.6l8.2-21.2C97.3,167.9,97.2,168.6,97.2,169.3z"/>
			<path class="st3" d="M83.7,188.8l-12.3-15.5c-0.2-0.7-0.5-1.4-0.7-2.1l14.2,17.8C84.4,189,84,188.9,83.7,188.8z"/>
			<path class="st3" d="M93,184.9l3.6-9.3C95.8,179.4,94.6,182.6,93,184.9z"/>
			<path class="st3" d="M73.9,179.1l6.2,7.8C77.8,185.2,75.7,182.5,73.9,179.1z"/>
			<path class="st3" d="M78.9,134.4c0.3,0,0.6,0,0.8,0l-0.8,2.1l-1.4-1.8c0.3-0.1,0.5-0.1,0.8-0.2l0.4,0.5L78.9,134.4z"/>
			<path class="st3" d="M83.7,135.4c0.2,0.1,0.4,0.2,0.7,0.4L80.4,146l-6.8-8.6c0.2-0.2,0.4-0.4,0.5-0.5l6.1,7.6L83.7,135.4z"/>
			<path class="st3" d="M87.6,138.5c0.2,0.2,0.4,0.4,0.6,0.6l-6.3,16.4l-10.9-13.8c0.1-0.3,0.2-0.5,0.4-0.8l10.4,13.1L87.6,138.5z"
				/>
		</g>
	</g>
	<g>
		
			<ellipse transform="matrix(0.9298 -0.3682 0.3682 0.9298 -82.4194 28.2924)" class="st2" cx="32.9" cy="230.1" rx="14" ry="27.7"/>
		<g>
			<path class="st3" d="M16.4,218.3c0,0.3,0,0.6,0,1l17.8,14.3l3.2-22.6c-0.2-0.2-0.4-0.5-0.7-0.7l-3.2,21.9L16.4,218.3z"/>
			<path class="st3" d="M17,224.8c0.1,0.4,0.1,0.8,0.2,1.1l20.6,16.5l3.7-26.1c-0.2-0.3-0.4-0.7-0.6-1l-3.7,25.7L17,224.8z"/>
			<path class="st3" d="M40.8,250l-21.5-17.2l-0.2,0.2c0.1,0.3,0.2,0.5,0.3,0.8l22,17.6l4-27.9c-0.1-0.3-0.2-0.5-0.3-0.8l-0.3,0
				L40.8,250z"/>
			<path class="st3" d="M24.3,243.9l15.5,12.4c0.4,0,0.8,0,1.2,0l-17.8-14.2C23.5,242.7,23.9,243.3,24.3,243.9z"/>
			<path class="st3" d="M45.8,253.9l2.8-19.6c-0.1-0.7-0.3-1.4-0.5-2.1L45,254.7C45.3,254.4,45.6,254.2,45.8,253.9z"/>
			<path class="st3" d="M35.8,255.2l-7.8-6.2C30.6,251.9,33.2,254,35.8,255.2z"/>
			<path class="st3" d="M49.4,240.6l-1.4,9.8C49.1,247.8,49.5,244.4,49.4,240.6z"/>
			<path class="st3" d="M22.5,204.6c-0.2,0.1-0.5,0.2-0.7,0.4l1.8,1.4l0.3-2.3c-0.3,0.1-0.5,0.1-0.8,0.2l-0.1,0.6L22.5,204.6z"/>
			<path class="st3" d="M18.9,207.8c-0.1,0.2-0.3,0.4-0.4,0.6l8.6,6.9l1.6-10.9c-0.2-0.1-0.5-0.1-0.7-0.2l-1.4,9.7L18.9,207.8z"/>
			<path class="st3" d="M17,212.4c-0.1,0.3-0.1,0.5-0.2,0.8l13.8,11l2.5-17.4c-0.2-0.2-0.5-0.3-0.7-0.5L30,222.9L17,212.4z"/>
		</g>
	</g>
	<path class="st2" d="M68,292.1c-2-17-4-34.2-4.8-51.3c-0.3-5.9-0.1-11.8-0.1-17.8c0-8-0.2-16-0.4-23.9c-0.2-8.5-0.5-17-0.5-25.6
		c0-2.4-3.8-2.4-3.8,0c0.1,15.6,0.8,31.2,1,46.8c0,6-0.2,12.1,0.1,18.1c0.2,7.1,0.8,14.3,1.5,21.4c1,10.8,2.2,21.5,3.4,32.2
		C64.5,294.5,68.3,294.5,68,292.1L68,292.1z"/>
	<path class="st2" d="M67.9,292.6c12.1-40,22.8-82,18.9-124.1c-1-11-3-21.9-6.1-32.5c-0.7-2.3-4.3-1.3-3.6,1
		c11.2,38.7,6.7,79.1-2.7,117.7c-3,12.4-6.5,24.7-10.2,36.9C63.6,294,67.2,294.9,67.9,292.6L67.9,292.6z"/>
	<path class="st2" d="M67.4,290.8c-8.8-9.4-14.8-21.6-20.3-33.1c-6-12.4-11.3-25.2-16.4-38c-1.8-4.6-3.6-9.2-5.4-13.8
		c-0.9-2.2-4.5-1.3-3.6,1c9.3,23.6,18.3,47.6,31.1,69.6c3.5,6,7.3,11.9,12,17C66.4,295.2,69.1,292.6,67.4,290.8L67.4,290.8z"/>
	<g>
		
			<ellipse transform="matrix(0.3682 -0.9298 0.9298 0.3682 -151.1706 237.7796)" class="st2" cx="99.4" cy="230.1" rx="27.7" ry="14"/>
		<g>
			<path class="st3" d="M115.8,218.3c0,0.3,0,0.6,0,1L98,233.5l-3.2-22.6c0.2-0.2,0.4-0.5,0.7-0.7l3.2,21.9L115.8,218.3z"/>
			<path class="st3" d="M115.3,224.8c-0.1,0.4-0.2,0.8-0.2,1.1l-20.6,16.5l-3.7-26.1c0.2-0.3,0.4-0.7,0.6-1l3.7,25.7L115.3,224.8z"
				/>
			<path class="st3" d="M91.4,250l21.5-17.2l0.2,0.2c-0.1,0.3-0.2,0.5-0.3,0.8l-22,17.6l-4-27.9c0.1-0.3,0.2-0.5,0.3-0.8l0.3,0
				L91.4,250z"/>
			<path class="st3" d="M107.9,243.9l-15.5,12.4c-0.4,0-0.8,0-1.2,0l17.8-14.2C108.7,242.7,108.3,243.3,107.9,243.9z"/>
			<path class="st3" d="M86.4,253.9l-2.8-19.6c0.1-0.7,0.3-1.4,0.5-2.1l3.2,22.5C87,254.4,86.7,254.2,86.4,253.9z"/>
			<path class="st3" d="M96.4,255.2l7.8-6.2C101.7,251.9,99,254,96.4,255.2z"/>
			<path class="st3" d="M82.8,240.6l1.4,9.8C83.2,247.8,82.7,244.4,82.8,240.6z"/>
			<path class="st3" d="M109.8,204.6c0.2,0.1,0.5,0.2,0.7,0.4l-1.8,1.4l-0.3-2.3c0.3,0.1,0.5,0.1,0.8,0.2l0.1,0.6L109.8,204.6z"/>
			<path class="st3" d="M113.4,207.8c0.1,0.2,0.3,0.4,0.4,0.6l-8.6,6.9l-1.6-10.9c0.2-0.1,0.5-0.1,0.7-0.2l1.4,9.7L113.4,207.8z"/>
			<path class="st3" d="M115.2,212.4c0.1,0.3,0.1,0.5,0.2,0.8l-13.8,11l-2.5-17.4c0.2-0.2,0.5-0.3,0.7-0.5l2.4,16.5L115.2,212.4z"/>
		</g>
	</g>
	<path class="st2" d="M67.4,293.5c9-9.7,15.2-22.1,20.9-33.9C94.5,247,99.9,234.1,105,221c1.9-4.7,3.7-9.5,5.5-14.2
		c0.9-2.2-2.8-3.2-3.6-1C97.8,229,89,252.5,76.5,274.2c-3.4,5.9-7.1,11.7-11.7,16.6C63.2,292.6,65.8,295.2,67.4,293.5L67.4,293.5z"
		/>
	<path class="st2" d="M63.9,288.5c0,0,0.8-7.9-2.6,8c-3.4,15.9,0,8.5,0,8.5h14.1c0,0-3-8.5-4.2-18.5
		C70.1,276.6,63.9,288.5,63.9,288.5z"/>
</g>
<g>
	<g>
		<g>
			<path class="st1" d="M517.4,386.8c-0.4,0-0.7,0-1,0.1c0,0,0,0,0,0c-0.8,0-2.9,1-2.9,1v0c0.7-0.3,1.4-0.5,2.1-0.5c2.7,0,5,2.2,5,5
				c0,2.3-1.6,4.2-3.7,4.8c1-0.2,2.3-0.5,3-1.1c0,0,0,0,0,0c1.5-0.9,2.5-2.4,2.5-4.2C522.3,389,520.1,386.8,517.4,386.8z"/>
			<path class="st4" d="M515.6,387.5c-0.8,0-1.5,0.2-2.1,0.5c-1.7,0.8-2.8,2.5-2.8,4.5c0,2.7,2.2,5,4.9,5c0.1,0,0.2,0,0.2,0
				c0.2,0,0.6-0.1,1-0.1c2.2-0.5,3.7-2.5,3.7-4.8C520.6,389.7,518.3,387.5,515.6,387.5z"/>
		</g>
		<g>
			<path class="st1" d="M464.3,388c-0.4,0-0.7,0-1,0.1c0,0,0,0,0,0c-0.8,0-2.9,1-2.9,1v0c0.6-0.3,1.4-0.5,2.1-0.5c2.7,0,5,2.2,5,5
				c0,2.3-1.6,4.2-3.7,4.8c1-0.2,2.3-0.5,3-1.1c0,0,0,0,0,0c1.5-0.9,2.5-2.4,2.5-4.2C469.2,390.2,467,388,464.3,388z"/>
			<path class="st4" d="M462.5,388.6c-0.8,0-1.5,0.2-2.1,0.5c-1.7,0.8-2.8,2.5-2.8,4.5c0,2.7,2.2,5,5,5c0.1,0,0.2,0,0.2,0
				c0.2,0,0.6-0.1,1-0.1c2.1-0.5,3.7-2.5,3.7-4.8C467.4,390.9,465.2,388.6,462.5,388.6z"/>
		</g>
	</g>
	<path class="st5" d="M516.7,285.3h-59.5c-1.7,0-3.3,0.6-4.6,1.5c-2.1,0.9-5.1,2.2-7.9,3.5c-3.4,1.6-7.1,4.2-7.7,4.9
		c-0.1,0.1,3,3.3,3.3,3.4c1.1-0.7,0-5.3,1.5-5.3h59.5c4.2,0,7.7,3.4,7.7,7.7v93.1c0,2.9-1.7,5.5-4.1,6.8v0.4c0,0,2.9-1.4,6.3-3.1
		c4.1-2.1,8.9-4.7,10.4-6.2c0,0,0,0,0-0.1c1.7-1.4,2.8-3.5,2.8-5.9V293C524.4,288.8,521,285.3,516.7,285.3z"/>
	<path class="st1" d="M518.8,298.4c0-5.9-4.8-10.7-10.7-10.7l-57.1-0.1c0,0-2.9,0-4.6,0.8c-2,0.9-2.9,2.5-2.9,2.5s3.8-0.2,5.2-0.2
		h59.5c4.2,0,7.7,3.4,7.7,7.7v93.1c0,2.9-1.7,5-4.1,6.3v0.4c0,0,2.9-1.4,6.3-3.1c0.5-1.3,0.8-2.2,0.8-3.6V298.4L518.8,298.4z"/>
	<path class="st5" d="M501.3,293.4h-59.5c-1.4,0-2.1,0-3.3,0.7c-2.3,1.3-4.4,4.2-4.4,7v93.4c0,4.3,3.4,7.7,7.7,7.7h59.5
		c1.3,0,2.5-0.4,3.6-1c2.4-1.3,4.1-3.8,4.1-6.8v-93.4C509,296.9,505.5,293.4,501.3,293.4z"/>
	<path class="st6" d="M483.1,293.4H460c-0.5,0-0.8,0-1.3,0.1c-0.9,0.2-1.7,0.5-1.7,0.9V306c0,0.5,1.3,1,3,1h23.2c0.5,0,1,0,1.4-0.1
		c0.9-0.2,1.6-0.5,1.6-0.8v-11.6C486.1,293.9,484.8,293.4,483.1,293.4z"/>
	<path class="st4" d="M444.5,389.8h-2.2c-1.2,0-2.2-1-2.2-2.2v-80.5c0-1.2,1-2.2,2.2-2.2h2.2c1.2,0,2.2,1,2.2,2.2v80.5
		C446.7,388.9,445.7,389.8,444.5,389.8z"/>
	<path class="st4" d="M460.8,389.8h-2.4c-1.1,0-2.1-0.9-2.1-2.1v-73.8c0-1.1,0.9-2.1,2.1-2.1h2.4c1.1,0,2.1,0.9,2.1,2.1v73.8
		C462.9,388.9,462,389.8,460.8,389.8z"/>
	<path class="st4" d="M477,389.8h-2.4c-1.1,0-2.1-0.9-2.1-2.1v-73.8c0-1.1,0.9-2.1,2.1-2.1h2.4c1.1,0,2.1,0.9,2.1,2.1v73.8
		C479.1,388.9,478.1,389.8,477,389.8z"/>
	<path class="st4" d="M493.1,389.8h-2.2c-1.2,0-2.2-1-2.2-2.2v-80.5c0-1.2,1-2.2,2.2-2.2h2.2c1.2,0,2.2,1,2.2,2.2v80.5
		C495.3,388.9,494.3,389.8,493.1,389.8z"/>
	<rect x="460" y="260" class="st1" width="3.4" height="47"/>
	<rect x="480" y="260" class="st1" width="3.4" height="47"/>
	<rect x="457" y="301.9" class="st1" width="29.2" height="5.5"/>
	<path class="st7" d="M483.4,260.5H460v-3.4c0-0.7,0.6-1.3,1.3-1.3h20.9c0.7,0,1.3,0.6,1.3,1.3L483.4,260.5L483.4,260.5z"/>
	<g>
		<path class="st6" d="M506.5,397c-0.6-0.2-1.2,0.1-1.8,0.3c-1.3,0.5-2.8,0.7-4.1,0.5c-0.4,0-0.9-0.1-1.3,0
			c-0.3,0.1-0.6,0.4-0.8,0.6c-0.7,0.7-2.8,2.3-3.8,3.7h6.6c1.3,0,2.5-0.4,3.6-1c0,0,1.4-0.5,3.4-1.5c-0.2-0.5-0.4-0.9-0.7-1.4
			C507.4,397.8,507.1,397.2,506.5,397z"/>
	</g>
	<g>
		<path class="st6" d="M441.4,398.1c-1.3-1-4.7-1.7-6.9-1.1c1,3.1,3.9,5.3,7.3,5.3h2.3c-0.5-1-1.1-2.1-1.7-3
			C442,398.8,441.8,398.4,441.4,398.1z"/>
	</g>
	<path class="st1" d="M506.2,415.7c-0.1,0-0.2,0-0.3,0C506,415.7,506.1,415.7,506.2,415.7z"/>
	<g>
		<path class="st1" d="M503.7,399.6c-0.4,0-0.8,0-1.2,0.1h0c-0.9-0.1-3.2,1.2-3.2,1.2v0c0.7-0.4,1.5-0.6,2.4-0.6
			c3.1,0,5.6,2.5,5.6,5.6c0,2.6-1.8,4.8-4.2,5.4c1.1-0.2,2.5-0.6,3.4-1.3c0,0,0,0,0,0c1.6-1,2.8-2.8,2.8-4.8
			C509.3,402.1,506.8,399.6,503.7,399.6z"/>
		<path class="st7" d="M501.7,400.3c-0.9,0-1.7,0.2-2.4,0.6c-1.9,0.9-3.2,2.8-3.2,5c0,3.1,2.5,5.6,5.6,5.6c0.1,0,0.2,0,0.3,0
			c0.2,0,0.6-0.1,1.1-0.2c2.4-0.6,4.2-2.8,4.2-5.4C507.3,402.8,504.8,400.3,501.7,400.3z"/>
	</g>
	<g>
		<path class="st1" d="M438,399.6c-0.4,0-0.8,0-1.2,0.1h0c-0.9-0.1-3.2,1.2-3.2,1.2v0c0.7-0.4,1.5-0.6,2.4-0.6
			c3.1,0,5.6,2.5,5.6,5.6c0,2.6-1.8,4.8-4.2,5.4c1.1-0.2,2.5-0.6,3.4-1.3c0,0,0,0,0,0c1.6-1,2.8-2.8,2.8-4.8
			C443.6,402.1,441.1,399.6,438,399.6z"/>
		<path class="st7" d="M436,400.3c-0.9,0-1.7,0.2-2.4,0.6c-1.9,0.9-3.2,2.8-3.2,5c0,3.1,2.5,5.6,5.6,5.6c0.1,0,0.2,0,0.3,0
			c0.2,0,0.6-0.1,1.1-0.2c2.4-0.6,4.2-2.8,4.2-5.4C441.6,402.8,439.1,400.3,436,400.3z"/>
	</g>
</g>
<g>
	<g>
		<path class="st8" d="M195,227.2l5.8,7.9l-29.4,23.2c-2.9,2.1-6.9,1.4-8.9-1.4l0,0c-2.1-2.9-1.4-6.9,1.4-8.9L195,227.2z"/>
		<path class="st8" d="M206.9,220.8l-2.1-2.9l9.9-7.2c0.5-0.4,1.3-0.3,1.7,0.3l0.7,1c0.4,0.5,0.3,1.3-0.3,1.7L206.9,220.8z"/>
		<path class="st8" d="M209,223.7l2.1,2.9l9.9-7.2c0.5-0.4,0.6-1.1,0.3-1.7l-0.7-1c-0.4-0.5-1.1-0.6-1.7-0.3L209,223.7z"/>
		<path class="st9" d="M206.9,220.8l2.1,2.9l12.2-8.9c0.5-0.4,0.6-1.1,0.3-1.7l-0.7-1c-0.4-0.5-1.1-0.6-1.7-0.3L206.9,220.8z"/>
		<path class="st9" d="M211.1,226.6l2.1,2.9l6.7-4.9c0.5-0.4,0.6-1.1,0.3-1.7l-0.7-1c-0.4-0.5-1.1-0.6-1.7-0.3L211.1,226.6z"/>
		<polygon class="st8" points="213.2,229.5 204.8,217.9 195,227.2 200.8,235.1 		"/>
		<ellipse class="st8" cx="197.9" cy="231.2" rx="4.9" ry="4.9"/>
		<path class="st9" d="M200.4,214.3c0.9,0.3,1.5,1.3,1.1,2.3l-2,6.1c0.1,0,0.1,0,0.2,0c2,0.6,3.1,2.8,2.4,4.8
			c-0.6,2-2.8,3.1-4.8,2.4c-0.1,0-0.1-0.1-0.2-0.1c-1.9-0.7-2.9-2.8-2.2-4.7l3.2-9.6C198.4,214.5,199.4,214,200.4,214.3z"/>
	</g>
	<g>
		<path class="st1" d="M154.8,183.3c-1.2,0-2.3,0.2-3.3,0.6c-0.6-4.4-4.4-7.7-8.9-7.7c-5,0-9.1,4.1-9.1,9.1c0,0.1,0,0.2,0,0.2
			c0,0.1,0,0.2,0,0.2c0,1.7,0.5,3.4,1.4,4.7c-1.4,1.6-2.3,3.7-2.3,6c0,5,4.1,9.1,9.1,9.1c3.8,0,7-2.3,8.4-5.6
			c1.4,0.9,3.1,1.4,4.9,1.4c5,0,9.1-4.1,9.1-9.1C163.8,187.4,159.8,183.3,154.8,183.3z"/>
		<path class="st1" d="M180.1,168.1C180.1,168.1,180.1,168.1,180.1,168.1c0,2.1-2,3.5-3.9,3c-0.3-0.1-0.6-0.1-0.9-0.1
			c-4.1-0.1-10.5-0.2-16.5-0.2c-5.6,0-12.5,0.4-16.1,0.7c-2.7,0.2-2.5,3.4-2.5,3.4s-0.7-5.2-0.7-6.7c0-11.9,9.1-21.6,20.3-21.6
			C171.1,146.4,180.1,156.1,180.1,168.1z"/>
	</g>
	<rect x="152.1" y="190.1" class="st8" width="15.3" height="16.6"/>
	<path class="st7" d="M150.7,420.1l15.6,8.8c1.4,0.8,2.4,2.1,2.7,3.6l0.5,2.3c0.2,0.7-0.5,1.4-1.2,1.2l-27.4-5.2
		c-0.7-0.1-1.2-0.8-1.2-1.5l0.5-12.6L150.7,420.1z"/>
	<path class="st7" d="M211.8,415.7l17.6,3.3c1.6,0.3,2.9,1.2,3.8,2.6l1.3,2c0.4,0.6,0,1.5-0.7,1.6l-27.6,3.9c-0.7,0.1-1.4-0.3-1.6-1
		l-3.6-12.1L211.8,415.7z"/>
	<ellipse class="st9" cx="159.8" cy="171.4" rx="17" ry="20.9"/>
	<g>
		<path class="st9" d="M143.6,171.7c-0.7-1.3-2.5-0.7-3.6,0.3c-1,1-0.9,2.7-0.4,4c0.8,1.9,2.3,3.6,4.2,4.4c0.2,0.1,0.5,0.2,0.7,0.1
			c0.3-0.2,0.3-0.7,0.2-1c-0.6-2.4-0.7-3.4-1-5.9L143.6,171.7z"/>
	</g>
	<polygon class="st10" points="172.1,264.5 147.5,264.5 159.9,297.1 	"/>
	<path class="st10" d="M159.9,250.9c7.1,0,12.2,5.7,12.2,12.9s-5.1,13-12.2,13S148,271,148,263.9S152.8,250.9,159.9,250.9z"/>
	<path class="st9" d="M201.4,417.9l10.5-1.9l-14.4-81.7c-0.9-5-5.6-8.3-10.6-7.4l0,0c-5,0.9-8.2,5.7-7.3,10.7
		C182.2,350.8,191.4,395.6,201.4,417.9z"/>
	<path class="st9" d="M161.5,268.9c6.7-2.9,11.4-4.6,11.4-4.6s24.4,68,24.4,68c2,4.5-0.1,9.8-4.6,11.7c-4.4,1.9-8.7-0.6-11.6-4.4
		c-4.2-5.6-21.4-30.6-24.4-39.5C154.1,292.4,152.2,273,161.5,268.9z"/>
	<path class="st9" d="M140.2,419.2l10.6,0.9l7.7-82.6c0.5-5-3.3-9.5-8.3-9.9l0,0c-5-0.4-9.5,3.3-9.8,8.4
		C139.4,349.4,136.5,395.1,140.2,419.2z"/>
	<path class="st9" d="M148.6,264.4c7.3-0.3,12.3-0.2,12.3-0.2s-2.1,72.2-2.1,72.2c0.2,4.9-3.6,9-8.6,9.2c-4.8,0.2-7.9-3.7-9.2-8.4
		c-1.9-6.8-8.7-36.3-8.3-45.6C133.1,283.6,138.5,264.8,148.6,264.4z"/>
	<g>
		<path class="st1" d="M155.7,168.1L155.7,168.1c2.2-0.9,4.5-1.9,6-3.7c1-1.2,1.7-2.7,2.2-4.2c0.8,2.3,2.6,4.2,4.5,5.7
			c2,1.5,4.2,2.5,6.5,3.6c0.8,0.4,1.8,0.7,2.4,0.1c0.5-0.4,0.4-1.2,0.4-1.8c-0.2-2.2-0.5-4.4-1.2-6.5c-1.5-4.7-5.1-8.6-9.6-10.6
			c-5.1-2.3-11.3-2-16.4,0.4c-1.4,0.7-2.7,1.5-3.9,2.6c-3.4,3.3-4.3,8.3-5.1,12.9c-0.2,1-0.6,2.9,0.3,3.7c0.8,0.9,3.2,0.6,4.2,0.5
			C149.4,170.7,152.6,169.4,155.7,168.1z"/>
	</g>
	<g>
		<path class="st8" d="M223.4,276.4c-0.2,1-1.1,1.6-2.1,1.4l-6.3-1.2c0,0.1,0,0.1,0,0.2c-0.4,2.1-2.4,3.4-4.4,3
			c-2.1-0.4-3.4-2.4-3-4.4c0-0.1,0-0.1,0.1-0.2c0.5-2,2.4-3.2,4.4-2.8l9.9,1.9C222.9,274.4,223.5,275.4,223.4,276.4z"/>
		<g>
			<g>
				<path class="st9" d="M215.4,278.6l2.1-2.9l9.9,7.1c0.5,0.4,0.7,1.1,0.3,1.7l-0.7,1c-0.4,0.5-1.1,0.7-1.7,0.3L215.4,278.6z"/>
				<path class="st9" d="M213.4,281.5l-2.1,2.9l9.9,7.1c0.5,0.4,1.3,0.3,1.7-0.3l0.7-1c0.4-0.5,0.3-1.3-0.3-1.7L213.4,281.5z"/>
				<path class="st8" d="M215.4,278.6l-2.1,2.9l12.3,8.8c0.5,0.4,1.3,0.3,1.7-0.3l0.7-1c0.4-0.5,0.3-1.3-0.3-1.7L215.4,278.6z"/>
				<path class="st8" d="M211.3,284.4l-2.1,2.9l6.7,4.8c0.5,0.4,1.3,0.3,1.7-0.3l0.7-1c0.4-0.5,0.3-1.3-0.3-1.7L211.3,284.4z"/>
				<polygon class="st9" points="209.2,287.4 217.5,275.6 205.6,269.4 199.9,277.4 				"/>
			</g>
			<ellipse class="st9" cx="202.7" cy="273.4" rx="4.9" ry="4.9"/>
		</g>
	</g>
	<path class="st9" d="M141.1,337.4c1.3,4.6,4.4,8.5,9.2,8.4c4.9-0.2,8.7-4.3,8.6-9.2c0,0,0.1-3.1,0.2-8.1h-20.2
		C139.8,332.4,140.6,335.6,141.1,337.4z"/>
	<path class="st1" d="M172.9,264.3l-11.9,0c0,0-5-0.1-12.3,0.2c-10.1,0.4-15.5,19.1-15.9,27.3c-0.3,6.9,3.4,25.1,6.1,36.7H159h14.3
		h22.6C190.7,314,172.9,264.3,172.9,264.3z"/>
	<path class="st11" d="M145.5,199.8c-1.4,0.7-2.8,1.6-3.9,2.6c-3.3,3-5.4,7.2-5.4,12l10.5,50.3h26.3l6.9-33.3
		c0-3.9,3.4-12.8-4.7-24.6c-0.3,0-0.7,0-1,0C162.2,207,151.8,204.1,145.5,199.8z"/>
	<path class="st8" d="M167.2,198.2h-14.9c-2.5,0-4.8,0.6-6.9,1.6c6.3,4.3,16.8,7.2,28.6,7.2c0.3,0,0.7,0,1,0
		C173.2,204.2,170.6,201.3,167.2,198.2z"/>
	<path class="st9" d="M205.6,269.4l-5.7,8l-31.4-20.4c-2.9-2.1-3.6-6-1.5-8.9l0,0c2.1-2.9,6-3.6,8.9-1.5L205.6,269.4z"/>
	<path class="st9" d="M175.9,255.8l-0.3,0.3c-2.6,2.1-6.4,1.7-8.6-0.8l-30.2-36.1c-2.6-3.3-2.1-8.1,1.2-10.8l0,0
		c3.3-2.6,8.1-2.1,10.8,1.2l28.3,37.6C179.1,250,178.6,253.7,175.9,255.8z"/>
	<path class="st11" d="M160.9,218.8c0,7.4-9.4,10.4-16.6,10.4s-10.3,0-10.3-7.4s3-19.6,10.3-19.6
		C151.6,202.1,160.9,211.3,160.9,218.8z"/>
</g>
<g>
	<polygon class="st11" points="402.8,282.1 399.6,282.8 369.2,212.4 372.3,211.8 	"/>
	<path class="st11" d="M318.5,417.2l-17.7,2.6c-1.6,0.2-3,1.1-3.9,2.4l-1.3,2c-0.4,0.6-0.1,1.5,0.7,1.6l27.4,5
		c0.7,0.1,1.4-0.3,1.6-1l4-12L318.5,417.2z"/>
	<path class="st11" d="M442.2,398.3l-7.1,16.4c-0.6,1.5-0.6,3.1,0,4.5l1,2.2c0.3,0.7,1.2,0.8,1.7,0.3l18.7-20.6
		c0.5-0.5,0.5-1.4,0.1-1.9l-8-9.8L442.2,398.3z"/>
	<path class="st1" d="M329.3,419.8l-10.4-2.3l17.2-73.6c1-5,5.9-8.1,10.9-7l0,0c4.9,1.1,8,6,6.9,10.9
		C350.9,361,340,397.9,329.3,419.8z"/>
	<path class="st1" d="M359.2,273.1c-7.1-1.5-12-2.3-12-2.3s-10.6,71.5-10.6,71.5c-1,4.8,2,9.5,6.8,10.6c4.7,1,8.5-2.3,10.5-6.6
		c3-6.4,15-34.2,16.2-43.5C371.1,294.6,369.1,275.2,359.2,273.1z"/>
	<path class="st7" d="M448.6,390l-6.2,8.6l-64.6-46.5c-4.1-2.9-5.1-8.7-2.1-12.8l0,0c3-4.1,8.7-5,12.8-2
		C399.2,345.3,432.7,371.4,448.6,390z"/>
	<path class="st7" d="M371.1,273.5c-7.2,1-12.1,2-12.1,2s15.1,70.7,15.1,70.7c0.7,4.9,5.2,8.2,10.1,7.5c4.8-0.7,7.1-5.1,7.5-9.9
		c0.6-7,2.1-37.3,0-46.4C389.8,289.5,381.1,272,371.1,273.5z"/>
	<polygon class="st7" points="372.9,273.5 346.7,273.5 365.3,302.2 	"/>
	<g>
		<path class="st12" d="M295.6,273.3l6.4,7.4l29.2-23.4c2.7-2.3,2.9-6.4,0.6-9l0,0c-2.3-2.7-6.4-2.9-9-0.6L295.6,273.3z"/>
		<path class="st12" d="M286.6,283.5l-2.4-2.7l-9.2,8c-0.5,0.4-0.5,1.2-0.1,1.7l0.8,0.9c0.4,0.5,1.2,0.5,1.7,0.1L286.6,283.5z"/>
		<path class="st12" d="M289,286.2l2.4,2.7l-9.2,8c-0.5,0.4-1.2,0.4-1.7-0.1l-0.8-0.9c-0.4-0.5-0.4-1.2,0.1-1.7L289,286.2z"/>
		<path class="st13" d="M286.6,283.5l2.4,2.7l-11.4,9.9c-0.5,0.4-1.2,0.4-1.7-0.1l-0.8-0.9c-0.4-0.5-0.4-1.2,0.1-1.7L286.6,283.5z"
			/>
		<path class="st13" d="M291.4,288.9l2.4,2.7l-6.2,5.4c-0.5,0.4-1.2,0.4-1.7-0.1L285,296c-0.4-0.5-0.4-1.2,0.1-1.7L291.4,288.9z"/>
		<polygon class="st12" points="293.7,291.6 284.3,280.8 295.6,273.3 302,280.7 		"/>
		<path class="st13" d="M281.3,277.1c0.1,1,1,1.7,2,1.6l6.3-0.6c0,0.1,0,0.1,0,0.2c0.2,2.1,2,3.6,4.1,3.4c2.1-0.2,3.6-2,3.4-4.1
			c0-0.1,0-0.1,0-0.2c-0.3-2-2.1-3.4-4.1-3.2l-10.1,0.9C282,275.2,281.2,276.1,281.3,277.1z"/>
	</g>
	<g>
		<path class="st12" d="M321.9,248.8c-1.9,2.8-1.2,6.5,1.5,8.5l0.3,0.2c2.7,2,6.4,1.5,8.5-1.1l12.3-15.7l-8-12.8L321.9,248.8z"/>
		<path class="st5" d="M359.7,208.6c-3.4-2.5-8.2-1.8-10.7,1.6L336.5,228l8,12.8l16.7-21.4C363.8,216,363.1,211.2,359.7,208.6z"/>
	</g>
	<path class="st13" d="M352.4,200.4v8.4h0.1c0.4,3.5,3.6,6.3,7.6,6.3c4,0,7.2-2.8,7.6-6.3h0.1v-8.4H352.4z"/>
	<path class="st12" d="M377.1,181.5c0,12-7.6,21.8-17,21.8c-8.2,0-15-7.5-16.6-17.4c-0.2-1.4-0.4-2.9-0.4-4.4
		c0-16.7,7.6-21.8,17-21.8C369.5,159.8,377.1,169.5,377.1,181.5z"/>
	<path class="st11" d="M380.4,178.1c0-12.5-9.1-22.6-20.2-22.6S340,165.6,340,178.1c0,1.6,1.4,4.4,3.2,3.3c0-0.5-0.1-1.1-0.1-1.6
		c0-11.1,7.6-20.1,17-20.1s17,9,17,20.1c0,0.5,0,1.1-0.1,1.6l2.5,4.5C379.6,185.9,380.4,179.3,380.4,178.1z"/>
	<path class="st11" d="M371.1,147c-1.4,0-2.6,0.5-3.6,1.3c-0.9-0.7-2-1.1-3.2-1.1c-3.4,0-6.2,3.1-6.2,7s2.8,7,6.2,7
		c1.4,0,2.6-0.5,3.6-1.3c0.9,0.7,2,1.1,3.2,1.1c3.4,0,6.2-3.1,6.2-7S374.6,147,371.1,147z"/>
	<path class="st12" d="M431,229.3l5.6,8L406.8,260c-2.9,2-6.9,1.3-8.9-1.6l0,0c-2-2.9-1.3-6.9,1.6-8.9L431,229.3z"/>
	<path class="st12" d="M439.9,221l-2.8-2.3l7.7-9.4c0.4-0.5,1.2-0.6,1.7-0.2l0.9,0.8c0.5,0.4,0.6,1.2,0.2,1.7L439.9,221z"/>
	<path class="st12" d="M442.7,223.3l2.8,2.3l7.7-9.4c0.4-0.5,0.3-1.3-0.2-1.7l-0.9-0.8c-0.5-0.4-1.3-0.3-1.7,0.2L442.7,223.3z"/>
	<path class="st13" d="M439.9,221l2.8,2.3l9.6-11.7c0.4-0.5,0.3-1.3-0.2-1.7l-0.9-0.8c-0.5-0.4-1.3-0.3-1.7,0.2L439.9,221z"/>
	<path class="st13" d="M445.5,225.6l2.8,2.3l5.2-6.4c0.4-0.5,0.3-1.3-0.2-1.7l-0.9-0.8c-0.5-0.4-1.3-0.3-1.7,0.2L445.5,225.6z"/>
	<polygon class="st12" points="448.2,227.8 437.1,218.7 430,230.2 437.6,236.4 	"/>
	<ellipse class="st12" cx="433.9" cy="233.4" rx="4.9" ry="4.9"/>
	<path class="st13" d="M431.9,216.4c1,0.1,1.7,0.9,1.7,1.9l-0.4,6.4c0.1,0,0.1,0,0.2,0c2.1,0.1,3.7,1.9,3.5,4
		c-0.1,2.1-1.9,3.7-4,3.5c-0.1,0-0.1,0-0.2,0c-2-0.2-3.5-2-3.4-4l0.6-10.1C430.1,217.1,431,216.3,431.9,216.4z"/>
	<path class="st12" d="M408.1,251.4l-14-18.8l-9.3,10.9l13.2,15.9c2.2,2.5,6,2.9,8.6,0.8l0.3-0.3
		C409.5,257.9,410.1,254.1,408.1,251.4z"/>
	<path class="st14" d="M379.9,213.7c-2.6-3.3-7.5-3.9-10.8-1.3c-3.3,2.6-3.9,7.4-1.3,10.8l16.9,20.3l9.3-10.9L379.9,213.7z"/>
	<path class="st14" d="M352.5,207.1h14.9c4.2,0,8,1.6,10.9,4.2c3.3,3,5.4,7.2,5.4,12l-10.5,50h-26.3l-6.9-33
		C339.9,235.6,334.7,223.1,352.5,207.1z"/>
	<path class="st11" d="M377,177.7c-0.6-12.4-8-22.2-16.9-22.2c-9.4,0-16.8,8.5-16.8,21.8c0,0.6,0.5,3.7,0.9,3.7
		c0.9-0.1,1.9-0.1,3-0.2c0.6,0,0.9-7.2,1.6-7.3c0.4,0,1.2,7.2,1.7,7.2c2.1,0,4.3,0,6.6,0c0.7,0,1.4-8.2,2-8.2c1.2,0,1.2,8.3,2.8,8.3
		c3.1,0.1,8.1,0.3,10.6,0.3c0.8,0,0.1-4.4,0.8-4.4l1.8,8.5c0,0,0.9-2.1,1.8-4l0.1,0.2c0-0.1,0-0.3,0-0.4c0.7-1.4,1.3-2.6,1.6-2.9
		C379,177.7,378.2,177.6,377,177.7z"/>
	<g>
		<path class="st13" d="M376.4,181.1c0.7-1.4,2.5-0.8,3.6,0.3c1,1,0.9,2.8,0.4,4.1c-0.8,2-2.3,3.7-4.1,4.6c-0.2,0.1-0.5,0.2-0.7,0.1
			c-0.3-0.2-0.3-0.7-0.2-1.1c0.6-2.5,0.7-3.5,1-6.1L376.4,181.1z"/>
	</g>
	<path class="st11" d="M402.7,322.9l-21.8,4.8c-7.3,1.6-14.3-3.6-14.9-11l-2.2-26l38.9-8.5l8.9,24.5
		C414.2,313.7,410,321.4,402.7,322.9z"/>
	<path class="st11" d="M363.4,273.4L349.5,210c-1,1-1.9,2-2.7,3l13.2,60.4l3.8,17.3l3.2-0.7L363.4,273.4z"/>
	<path class="st12" d="M363.9,290.7l38.9-8.5l4.2,19.4c0.5,2.5-1,5-3.5,5.5l-29.9,6.5c-2.5,0.5-5-1-5.5-3.5L363.9,290.7z"/>
</g>
<path class="st15" d="M92.9,376.6H43c-2.1,0-3.9-1.7-4-3.8l-4.1-76.7c-0.1-2.3,1.7-4.2,4-4.2H97c2.3,0,4.1,1.9,4,4.2l-4.1,76.7
	C96.8,375,95,376.6,92.9,376.6z"/>
<path class="st5" d="M102.5,15.9c-5-1.9-13.8-1.5-18.8,2c-14.3-3-25-2.2-26.6,2.9c-2.1,6.8,12.7,18.6,33.7,27.5
	c0.4,0.2,0.8,0.4,1.3,0.6c0,0,131.8,52.5,177.8,63.4c20.6,4.9,83.9,13.1,83.9,13.1c3,0.4,5.8-1.5,6.8-4.6l0,0c1-3.3-0.3-2.3-3-3.9
	L314.7,97L102.5,15.9z"/>
<g>
	<path class="st7" d="M171.9,64.3c-1.8-0.7-3.8,0.4-4.4,2.4l-4,12.8c-0.6,2,0.3,4.2,2.1,4.9l19.9,7.6l6.3-20L171.9,64.3z"/>
	<path class="st1" d="M204.3,87.8c1.4-4.6-3-10.6-10.2-14.7c-0.7-0.5-1.5-1-2.3-1.3l-6.3,20c0.9,0.3,1.7,0.5,2.6,0.6
		C196,94.1,202.8,92.4,204.3,87.8z"/>
</g>
<polygon class="st16" points="176.8,63.1 177.2,59.5 291,48.6 316.1,58.1 315.5,61.8 297.9,61.7 243.3,88.5 "/>
<polygon class="st14" points="178.4,63.7 291.9,52.8 316.6,62.3 298.6,62.2 244.2,88.8 "/>
<path class="st16" d="M309,109l0.8-2.7l48.4-1.4l0.4,0.1l11.1,4.3c0.9,0.3-2.7,2.4-3.7,2.6l-30.1,7.4L309,109z"/>
<path class="st14" d="M309.1,109.2l48.1-1.4c0,0,0.1,0,0.1,0l8.1,3.1c0.4,0.2,0.3,1-0.1,1.1l-29.7,7.3L309.1,109.2z"/>
<g>
	<path class="st14" d="M297.3,93.4l33.3,12.1L343.1,66c0.6-2.1-0.3-4.3-2.2-5l-8-3c-1.3-0.5-2.7-0.1-3.7,0.9L297.3,93.4z"/>
	<path class="st11" d="M336.1,88.2l-1.6,5l-27.4-10.4l3.8-4.2L336.1,88.2z M303.1,87.1l-3.8,4.2l32,12.2l1.6-5L303.1,87.1z
		 M318.9,70l-3.8,4.2l22.7,8.7l1.6-5L318.9,70z M326.8,61.5l-3.8,4.2l18.1,6.9l1.6-5L326.8,61.5z"/>
	<path class="st1" d="M317.8,86.8l21.1-26.6l-5.9-2.3c-1.3-0.5-2.7-0.1-3.7,0.9l-22,23.9L317.8,86.8z"/>
</g>
<polygon class="st7" points="236.6,74.3 250.4,83.2 258.8,82.8 "/>
<polygon class="st7" points="248.3,68.1 262.1,77 270.5,76.5 "/>
<polygon class="st7" points="262.7,61.7 276.6,70.6 284.9,70.2 "/>
</svg>
